<?xml version="1.0" encoding="utf-8"?>
<!-- Generator: Adobe Illustrator 22.0.1, SVG Export Plug-In . SVG Version: 6.00 Build 0)  -->
<svg version="1.1" id="Layer_1" xmlns="http://www.w3.org/2000/svg" xmlns:xlink="http://www.w3.org/1999/xlink" x="0px" y="0px"
	 viewBox="0 0 29 29" style="enable-background:new 0 0 29 29;" xml:space="preserve">
<style type="text/css">
	.st0{fill:#BBBDBF;}
</style>
<g>
	<path class="st0" d="M8.6,20.4H10V19H8.6V20.4z M13.8,20.4h1.4V19h-1.4V20.4z M19,20.4h1.4V19H19V20.4z M8.6,15.2H10v-1.4H8.6V15.2
		z M13.8,15.2h1.4v-1.4h-1.4V15.2z M19,15.2h1.4v-1.4H19V15.2z M8.6,10H10V8.6H8.6V10z M13.8,10h1.4V8.6h-1.4V10z M19,10h1.4V8.6H19
		V10z M1.1,1.1h26.8v26.8H1.1V1.1z M0.5,28.5h28v-28h-28V28.5z"/>
</g>
</svg>
