<?xml version="1.0" encoding="utf-8"?>
<!-- Generator: Adobe Illustrator 22.0.1, SVG Export Plug-In . SVG Version: 6.00 Build 0)  -->
<svg version="1.1" id="vca-logo-white" xmlns="http://www.w3.org/2000/svg" xmlns:xlink="http://www.w3.org/1999/xlink" x="0px"
	 y="0px" viewBox="0 0 155 25.5" style="enable-background:new 0 0 155 25.5;" xml:space="preserve">
<style type="text/css">
	.st0{fill:#FFFFFF;}
</style>
<g>
	<path class="st0" d="M11.5,17L8.1,9.7H2.3L9.7,24h3.5l7.5-14.3H15L11.5,17z M21.4,24h5.4V9.7h-5.4V24z M24.1,0.8
		c-1.9,0-3.5,1.6-3.5,3.5s1.6,3.5,3.5,3.5s3.5-1.6,3.5-3.5S26,0.8,24.1,0.8z M34.7,9.7V5.2h-5.2v4.4H28v4.2h1.5v10.1h5.2V13.8h3.1
		V9.7H34.7z M44.4,11.7v-2H39V24h5.3c0,0,0-5.9,0-7.5c0-2.3,3.7-3,5.3-2.3c0-2,0-2.4,0-4.9C46,9.1,44.4,11.7,44.4,11.7z M61.8,11.2
		c-1.6-1.6-4-2.3-6.3-1.8c-3.9,0.9-6.2,4.7-5.7,8.5c0.3,2.3,1.3,4.2,3.4,5.5c2.7,1.8,6.5,1.5,8.5-1.1c-0.1,0.6,0,1.6,0,1.6h4.8
		l0.1-14.3h-4.8C61.8,9.7,61.8,10.7,61.8,11.2z M58.5,20.4c-1.9,0-3.5-1.6-3.5-3.5s1.6-3.5,3.5-3.5S62,15,62,16.9
		C62,18.9,60.4,20.4,58.5,20.4z M71.9,17.7c-1.9,0-3.5,1.6-3.5,3.5s1.6,3.5,3.5,3.5s3.5-1.6,3.5-3.5C75.4,19.3,73.9,17.7,71.9,17.7z
		"/>
	<path class="st0" d="M85.1,15.4c0.6,0,1-0.1,1.7-0.3v-2.3c-0.4,0.5-1,0.8-1.6,0.8c-1.2,0-2-0.8-2-2c0-1.1,0.8-2,1.9-2
		c0.6,0,1.3,0.3,1.7,0.8V8.1c-0.6-0.2-1.1-0.4-1.7-0.4c-1,0-2,0.4-2.8,1.2c-0.7,0.7-1.1,1.7-1.1,2.6c0,1.1,0.4,2,1.2,2.7
		C83.1,15,84,15.4,85.1,15.4z M89.7,13.9h2.6l0.5,1.3h2L92.1,8H90l-2.8,7.2h2L89.7,13.9z M91,10.2L91,10.2l0.8,2.3h-1.6L91,10.2z
		 M104,15.2L102.9,8H101l-1.6,3.9L98,8h-1.9l-1.2,7.2h1.9l0.6-4.2l0,0l1.7,4.2h0.7l1.7-4.2l0,0l0.5,4.2H104z M106.7,12.8h1.1
		c1.6,0,2.6-0.7,2.6-2.5c0-1.7-1.1-2.4-2.6-2.4h-2.9v7.2h1.9L106.7,12.8L106.7,12.8z M106.7,9.5h0.3c0.7,0,1.4,0,1.4,0.9
		s-0.7,0.9-1.4,0.9h-0.3V9.5z M115.6,11.8c0,0.9-0.1,2-1.3,2s-1.3-1-1.3-2V8h-1.9v4c0,0.9,0,1.9,0.8,2.6c0.6,0.6,1.6,0.8,2.4,0.8
		s1.8-0.2,2.4-0.8c0.7-0.7,0.8-1.6,0.8-2.6V8h-1.9V11.8z M120.8,13.8c-0.6,0-1.2-0.3-1.7-0.7l-0.8,1.5c0.7,0.5,1.6,0.8,2.5,0.8
		c0.7,0,1.5-0.2,2.1-0.7s0.7-1.2,0.7-1.9c0-1.2-0.8-1.7-1.8-2l-0.5-0.1c-0.3-0.1-0.8-0.3-0.8-0.7s0.5-0.6,0.8-0.6
		c0.5,0,0.9,0.2,1.2,0.5l0.7-1.5c-0.6-0.4-1.5-0.6-2.3-0.6c-1.4,0-2.5,1-2.5,2.4s0.8,1.7,2,2c0.4,0.1,1.1,0.3,1.1,0.8
		C121.7,13.6,121.2,13.8,120.8,13.8z M83.7,16.8L80.9,24h2l0.5-1.3H86l0.5,1.3h2l-2.7-7.2H83.7z M83.9,21.3l0.8-2.3l0,0l0.8,2.3
		H83.9z M94.4,19c0-1.5-1.1-2.2-2.5-2.2H89V24h1.9v-2.8l0,0l1.8,2.8H95l-2.3-3C93.8,20.9,94.4,20,94.4,19z M91.1,20h-0.2v-1.8h0.2
		c0.6,0,1.3,0.1,1.3,0.9S91.7,20,91.1,20z M96.3,17.8c-0.7,0.7-1.1,1.7-1.1,2.6c0,1.1,0.4,2,1.2,2.7c0.7,0.7,1.7,1.1,2.7,1.1
		c0.6,0,1-0.1,1.7-0.3v-2.3c-0.4,0.5-1,0.8-1.6,0.8c-1.2,0-2-0.8-2-2c0-1.1,0.8-2,1.9-2c0.6,0,1.3,0.3,1.7,0.8V17
		c-0.6-0.2-1.1-0.4-1.7-0.4C98,16.6,97,17,96.3,17.8z M106.5,19.6h-2.7v-2.8h-1.9V24h1.9v-3h2.7v3h1.9v-7.2h-1.9V19.6z M109.6,24
		h1.9v-7.2h-1.9V24z M112.2,18.4h1.6V24h1.9v-5.6h1.6v-1.6h-5L112.2,18.4L112.2,18.4z M117.8,24h4.1v-1.6h-2.2v-1.2h2.1v-1.6h-2.1
		v-1.2h2.2v-1.6h-4.1V24z M123.8,17.8c-0.7,0.7-1.1,1.7-1.1,2.6c0,1.1,0.4,2,1.2,2.7c0.7,0.7,1.7,1.1,2.7,1.1c0.6,0,1-0.1,1.7-0.3
		v-2.3c-0.4,0.5-1,0.8-1.6,0.8c-1.2,0-2-0.8-2-2c0-1.1,0.8-2,1.9-2c0.6,0,1.3,0.3,1.7,0.8V17c-0.6-0.2-1.1-0.4-1.7-0.4
		C125.6,16.6,124.5,17,123.8,17.8z M128.9,18.4h1.6V24h1.9v-5.6h1.6v-1.6h-5v1.6H128.9z M139,20.6c0,0.9-0.1,2-1.3,2s-1.3-1-1.3-2
		v-3.8h-1.9v4.1c0,0.9,0,1.9,0.8,2.6c0.6,0.6,1.6,0.8,2.4,0.8c0.8,0,1.8-0.2,2.4-0.8c0.7-0.7,0.8-1.6,0.8-2.6v-4.1H139V20.6z
		 M147.4,19c0-1.5-1.1-2.2-2.5-2.2H142V24h1.9v-2.8l0,0l1.8,2.8h2.3l-2.3-3C146.8,20.9,147.4,20,147.4,19z M144.1,20h-0.2v-1.8h0.2
		c0.6,0,1.3,0.1,1.3,0.9S144.7,20,144.1,20z M152.7,18.4v-1.6h-4.1V24h4.1v-1.6h-2.2v-1.2h2.1v-1.6h-2.1v-1.2
		C150.5,18.4,152.7,18.4,152.7,18.4z"/>
</g>
</svg>
