<?xml version="1.0" encoding="utf-8"?>
<!-- Generator: Adobe Illustrator 22.0.1, SVG Export Plug-In . SVG Version: 6.00 Build 0)  -->
<svg version="1.1" xmlns="http://www.w3.org/2000/svg" xmlns:xlink="http://www.w3.org/1999/xlink" x="0px" y="0px"
	 viewBox="0 0 1280 1024" style="enable-background:new 0 0 1280 1024;" xml:space="preserve">
<style type="text/css">
	.st0{fill:none;stroke:#231F20;stroke-width:0.25;stroke-miterlimit:10;}
	.st1{fill:#231F20;}
</style>
<g id="Layer_1">
	
		<rect x="948.5" y="387.1" transform="matrix(0.997 7.679548e-02 -7.679548e-02 0.997 34.9623 -73.7097)" class="st0" width="54.8" height="61.4"/>
	<polyline class="st0" points="950.2,395.5 936.9,395.8 934.5,418.2 864.5,412.1 859.8,474.8 854.6,474.3 854.1,476.2 849.2,476.2 
		849.2,492 858.2,492.5 853.8,539.1 858.6,546.5 854.3,589.7 857.4,590 856.7,598.5 892.3,602 892.9,593.3 921.1,595.4 925,552.7 
		960.5,556 966.6,479.3 989.7,481.8 992.7,477.2 1000.8,455.4 1000.8,450.4 	"/>
	<polyline class="st0" points="992.7,477.2 1078.3,507.7 1081.1,501 1133.6,512.3 1136.3,501.2 1130.6,500 1133.3,489.4 1086.3,480 
		1084.3,485.3 1000.8,455.4 	"/>
	
		<rect x="985.2" y="526.3" transform="matrix(0.9171 0.3987 -0.3987 0.9171 294.3831 -352.01)" class="st0" width="16.7" height="10.9"/>
	<line class="st0" x1="1026.1" y1="569.7" x2="1021.6" y2="567.8"/>
	<polyline class="st0" points="1025.7,557.7 1036.1,562.2 1032.4,570.7 	"/>
	<polyline class="st0" points="1023.6,576.5 1026.5,568.7 1061.3,581.3 1058.5,589.2 	"/>
	<polygon class="st0" points="1066.3,592.1 1023.6,576.5 1021.6,582.1 1026.8,584 1023.2,594.1 1052.9,604.7 1056.4,594.8 
		1064.3,597.6 	"/>
	<polygon class="st0" points="1019.2,573.6 1004.9,568.1 1012,551.7 1025.7,557.7 	"/>
	<polygon class="st0" points="998.5,573.7 986.3,568.4 986.3,559.9 1001.6,566.6 	"/>
	<polygon class="st0" points="1088.8,545.3 1006.7,509.8 1007.3,503.5 988.3,501.8 987.6,518 1010.7,527.9 1008,534.1 1014.3,536.8 
		1017,530.6 1083.2,559 	"/>
	<polygon class="st0" points="881.1,766.6 871.9,754.1 862.9,760.7 860.4,757.3 855.9,760.5 858.4,764 853.2,767.8 863.8,782.3 
		871.5,776.7 870,774.7 	"/>
	<polygon class="st0" points="1066.2,649.6 1050.9,627 1041.9,633.1 1043.3,635.2 1037,639.4 1050.9,659.9 1059.9,653.8 
		1059.9,653.8 	"/>
	<polygon class="st0" points="1107.4,577 1106.4,588.6 1101.7,588.3 1101.2,594.5 1105.9,594.9 1105.4,601.4 1120.7,602.6 
		1122.7,578.2 	"/>
	<polygon class="st0" points="1087.1,568.4 1089.4,563.7 1082.8,560.4 1080.5,565.1 1079.2,564.5 1072.9,577.4 1083.9,582.8 
		1090.3,569.9 	"/>
	<polyline class="st0" points="1057.4,636.4 1063,632.6 1056.3,622.7 1050.4,621.1 1043.9,625.5 1046.7,629.6 	"/>
	<polyline class="st0" points="984.6,701.7 982.7,702.9 979.2,697.6 981.1,696.3 	"/>
	<line class="st0" x1="989.4" y1="685.6" x2="998.2" y2="698.4"/>
	<polygon class="st0" points="1016.8,667.5 1010.2,671.9 1008.8,670.2 999.2,676.7 999.5,678.9 978.7,692.6 987.2,705.4 
		1025.3,680.4 	"/>
	<polygon class="st0" points="1016.4,607.1 1034.4,614.1 1027.9,632.3 1025,632.3 1014.2,616.9 	"/>
	<polyline class="st0" points="1026.7,611 1030.3,601.5 1018.7,596.8 1016.4,607.1 	"/>
	<line class="st0" x1="1029.5" y1="603.7" x2="1042.3" y2="608.8"/>
	<line class="st0" x1="1034.3" y1="614.3" x2="1039.3" y2="616.3"/>
	
		<rect x="1040.8" y="607.8" transform="matrix(0.9251 0.3797 -0.3797 0.9251 311.0001 -350.7984)" class="st0" width="7.9" height="10.4"/>
	<polyline class="st0" points="1018.2,622.6 1001.9,633.5 1020.2,662 1028.2,656.8 1016.9,639.7 1025.7,633.6 1025.5,632.3 	"/>
	
		<rect x="990.3" y="633.6" transform="matrix(0.8398 -0.543 0.543 0.8398 -188.4794 644.707)" class="st0" width="15.4" height="16.1"/>
</g>
<g id="Layer_2">
	<path class="st0" d="M782.6,111c0,0-128.3-15.2-150.2,106.4c-19.8,121.2,50.5,161.9,70,167.5c12.5,3.6,130.8,42.8,190.9-72.1
		c23-44.9,19.4-114.2,1.4-143.5C876.7,140,844.8,114.9,782.6,111z"/>
</g>
<g id="Layer_3">
	<path class="st0" d="M820.9,588H626.4c-1.1,0-2-0.9-2-2V454.6c0-1.1,0.9-2,2-2h194.5c1.1,0,2,0.9,2,2v131.4
		C822.9,587.1,822,588,820.9,588z"/>
	<path class="st0" d="M544,411.4V287.4h4.7c-0.5-3-3-5.3-6.2-5.3h-70.2l0-3.2l2.2-2.2v-6l-2.2-2.2h-8.1l-2.2,2.2v5.9l2.2,2.2v3.2
		h-89.8l0-3.2l2.2-2.2v-6l-2.2-2.2h-8.1l-2.2,2.2v5.9l2.2,2.2v3.2h-18.7l0-3.2l2.2-2.2v-6l-2.2-2.2h-8.1l-2.2,2.2v5.9l2.2,2.2v3.2
		h-9.1c-3.1,0-5.7,2.3-6.2,5.3h5.4v124.1h-5.4c0.3,3.2,2.9,5.7,6.2,5.7h9.1v3l-2.2,2.2v5.9l2.2,2.2h8.1l2.2-2.2v-6l-2.2-2.2l0-2.9
		h27.6v3l-2.2,2.2v5.9l2.2,2.2h8.1l2.2-2.2v-6l-2.2-2.2l0-2.9h26.7v18.3h9.4v-18.3h35.7v3l-2.2,2.2v5.9l2.2,2.2h8.1l2.2-2.2v-6
		l-2.2-2.2l0-2.9h79.4c3.2,0,5.9-2.5,6.2-5.7H544z"/>
</g>
<g id="Layer_4">
	<polygon class="st0" points="591,666.2 591,682.4 606.6,682.4 606.6,706.2 590.7,706.2 590.7,827.1 579,827.1 579,869 724.8,869 
		724.8,829.5 790.9,829.5 790.9,666.5 	"/>
</g>
<g id="Layer_5">
	<polygon class="st0" points="544.3,469 444.8,469 444.8,453.7 426.1,453.7 426.1,469 418.7,469 418.7,450.4 409.6,450.4 409.6,469 
		329.1,469 329.1,480.2 319.1,488 319.1,499 329.1,499 329.1,581 302.9,581 302.9,590 329.1,590 329.1,604.3 504,604.3 504,617.9 
		515.9,617.9 515.9,604.3 544.3,604.3 	"/>
	
		<rect x="299.4" y="464.8" transform="matrix(0.9918 -0.1281 0.1281 0.9918 -57.9531 42.8867)" class="st0" width="10" height="14.1"/>
	<path class="st0" d="M314.1,589.9c0,0-4.6,10,1.8,14.8c6.5,4.9,13.1-1.7,13.1-1.7"/>
</g>
<g id="Layer_6">
	<polygon class="st0" points="796.2,650 796.9,651.2 813.7,650.3 834.1,669.1 822.2,669.1 822.2,670 886.7,670 903.6,674.1 
		873.8,648.2 870.9,645.7 824.5,649.2 823.9,647.7 	"/>
	<polyline class="st0" points="873.8,648.2 950.2,631.4 958.8,638.7 879.4,653.1 	"/>
	<polyline class="st0" points="881.3,646.4 880.1,641.8 937,625.3 940.4,631.4 926.1,636.7 	"/>
</g>
<g id="Layer_7">
	<polygon class="st0" points="837.4,710.6 834.7,741.3 867.8,743.4 868.3,734.8 891.8,736.4 893.3,715.3 858.7,712.6 859.2,706.7 
		848.3,706 847.8,711.4 	"/>
	<polygon class="st0" points="837.4,710.6 834.7,741.3 867.8,743.4 868.3,734.8 903.4,737.2 902.2,755.1 906.4,761.6 944.9,734.6 
		947.3,706.1 951.6,706.5 953.5,681.4 914.9,678.2 911.1,719.1 893,718.1 893.3,715.3 858.7,712.6 859.2,706.7 848.3,706 
		847.8,711.4 	"/>
</g>
<g id="Layer_8">
	
		<rect x="146.5" y="358" transform="matrix(0.577 0.8168 -0.8168 0.577 370.4808 10.9172)" class="st0" width="56.5" height="10.2"/>
	<polyline class="st0" points="174.1,370.9 173.7,371.8 142.8,355.9 158.6,325 183.2,337.6 	"/>
	<path class="st0" d="M178.1,359.2l10.2,5.3l5.8-11.1c3.8-1.6,6.4-5.5,6.4-9.9c0-0.7-0.1-1.3-0.2-2l5.4-10.4l-15-7.8l-16,30.9"/>
	<g>
		<line class="st1" x1="193.6" y1="384.5" x2="225.9" y2="429.2"/>
		
			<rect x="209.5" y="379.3" transform="matrix(0.811 -0.585 0.585 0.811 -198.3763 199.5929)" class="st1" width="0.5" height="55.1"/>
	</g>
	<g>
		<line class="st1" x1="192.3" y1="385.4" x2="226.9" y2="433.4"/>
		
			<rect x="209.3" y="379.8" transform="matrix(0.811 -0.585 0.585 0.811 -199.8931 199.9647)" class="st1" width="0.5" height="59.2"/>
	</g>
	<line class="st0" x1="183.2" y1="366.2" x2="185.1" y2="362.9"/>
</g>
<g id="Layer_9">
	<rect x="229.8" y="516" class="st0" width="28.3" height="40.4"/>
	<rect x="258.1" y="518.9" class="st0" width="10.8" height="46.9"/>
	<polyline class="st0" points="222.1,528.3 227.4,531.4 227.4,535.9 229.8,535.9 	"/>
	<path class="st0" d="M223.5,534.8c0,0-2.9,16.3,5.2,25.6l4.4-1.1c0,0,4.8,7.4,15.4,4v-7"/>
	<polyline class="st0" points="258.1,565.8 258.1,569.7 241,575.8 241,564.1 	"/>
	<polygon class="st0" points="225.9,530.6 221.5,538.5 216.4,535.4 221.8,528.2 	"/>
	<path class="st0" d="M245.8,516.1c0,0-4.9-3.8-5-3.8s-2.7-3.1,0.4-7.2c3.1-4.2,9.1-1.2,10.2-0.4c1.1,0.8,4.6,4.1,0.8,9.5v1.9"/>
	<path class="st0" d="M244.2,509.5l3.9,3l1.1-1.3c0,0,1-1.3,0.5-2.7c-0.5-1.4-2.9-1.9-3.9-1.5C244.8,507.4,244.2,509.5,244.2,509.5z
		"/>
	<polygon class="st0" points="242.8,613.4 234.3,618.1 235.7,633.2 244.2,632.5 244.2,628.3 268.6,628.3 268.6,619.3 242.7,619.3 	
		"/>
	<polyline class="st0" points="241.9,613.9 240.6,599.4 268.6,596.6 268.6,619.3 	"/>
</g>
<g id="Layer_10">
	<polygon class="st0" points="383.3,673.5 383.3,665.4 374.6,665.4 374.6,673.5 372.7,673.5 372.7,674.7 385.1,674.7 385.1,673.5 	
		"/>
</g>
<g id="Layer_11">
	<circle class="st0" cx="330" cy="747" r="22.3"/>
	
		<rect x="338" y="781.5" transform="matrix(0.9087 -0.4175 0.4175 0.9087 -299.8564 219.0777)" class="st0" width="25.9" height="27.1"/>
	
		<rect x="347.5" y="768.5" transform="matrix(0.9087 -0.4175 0.4175 0.9087 -291.0146 217.2801)" class="st0" width="7.5" height="10.7"/>
</g>
<g id="Layer_12">
	<polygon class="st0" points="172.5,876.1 175.1,890.4 238.4,872.8 235.1,858.7 	"/>
	<polyline class="st0" points="206,881.8 252,911.8 263,896.9 228.5,875.7 	"/>
	<polyline class="st0" points="211.5,865.3 192.8,853.9 184.5,867.7 190,871.3 	"/>
	<polyline class="st0" points="211.7,859.6 209.8,826.2 193,827.5 194.8,854.9 	"/>
	<polyline class="st0" points="197.8,900.7 198.5,911.5 205.3,913.1 214.5,909 214.2,903.2 	"/>
	<polyline class="st0" points="191.7,855.5 170.2,840.4 180.8,826.7 193.4,835.3 	"/>
	<polyline class="st0" points="210.6,838.3 216.2,833.2 230.8,849.7 	"/>
	<line class="st0" x1="211.3" y1="853.4" x2="215.1" y2="857.6"/>
	<polyline class="st0" points="260.3,895.5 257.1,835.8 240.2,835.8 240.2,845 	"/>
	<line class="st0" x1="249.7" y1="844.2" x2="249.5" y2="835.8"/>
	<line class="st0" x1="250.1" y1="858.7" x2="250.7" y2="889.3"/>
	<polyline class="st0" points="240.2,864.2 249.1,884.4 246.1,886.4 	"/>
	<line class="st0" x1="237.2" y1="873.1" x2="247.6" y2="885.4"/>
	<polyline class="st0" points="257.5,843.9 266.3,841.2 271.2,859.3 258.6,863.9 	"/>
	<line class="st0" x1="258.3" y1="854.8" x2="268.9" y2="851"/>
	<polyline class="st0" points="245.9,907.7 193.9,900.2 193.8,892.1 193.8,885.2 213.5,886.8 	"/>
	<line class="st0" x1="230.5" y1="897.8" x2="193.8" y2="892.1"/>
	<polyline class="st0" points="260,895.1 267.1,896.2 265.5,910.8 253.8,909.5 	"/>
	<line class="st0" x1="258.4" y1="903.3" x2="266" y2="904.2"/>
	<polyline class="st0" points="237.5,906.4 243.4,911 247.8,909.2 	"/>
	<polyline class="st0" points="262.3,910.5 262.3,918.7 252.4,918.9 243.4,919 243.4,911 	"/>
	<line class="st0" x1="252.3" y1="911.7" x2="252.4" y2="918.9"/>
	<line class="st0" x1="204.8" y1="901.8" x2="205.3" y2="913.1"/>
	<polyline class="st0" points="173.9,883.4 236.8,866.2 256.4,855.3 247.8,841.2 206.6,862.3 	"/>
	<line class="st0" x1="187.8" y1="862.4" x2="198" y2="869"/>
	<line class="st0" x1="214.8" y1="879.4" x2="256.2" y2="905.8"/>
	<line class="st0" x1="235.1" y1="858.7" x2="252.6" y2="849.3"/>
	<line class="st0" x1="175.4" y1="833.7" x2="194.3" y2="848.1"/>
</g>
</svg>
